<svg xmlns="http://www.w3.org/2000/svg" version="1.1" xmlns:xlink="http://www.w3.org/1999/xlink" xmlns:svgjs="http://svgjs.dev/svgjs" width="1500" height="1500" viewBox="0 0 1500 1500"><g transform="matrix(1,0,0,1,-0.21332335329316265,-0.21332335329350371)"><svg viewBox="0 0 334 334" data-background-color="#000000" preserveAspectRatio="xMidYMid meet" height="1500" width="1500" xmlns="http://www.w3.org/2000/svg" xmlns:xlink="http://www.w3.org/1999/xlink"><g id="tight-bounds" transform="matrix(1,0,0,1,0.04749999999998522,0.04750000000001364)"><svg viewBox="0 0 333.90454557049503 333.90454557049503" height="333.90454557049503" width="333.90454557049503"><rect width="333.905" height="333.905" fill="url(#c576ccff-e8de-4455-ac1d-0e63b5b4e4e3)" mask="url(#5491534a-9f10-45f6-b5e0-71dcafb9d285)" data-fill-palette-color="tertiary"></rect><g><svg></svg></g><g><svg viewBox="0 0 333.90454557049503 333.90454557049503" height="333.90454557049503" width="333.90454557049503"><g><path d="M0 166.952c0-92.205 74.747-166.952 166.952-166.952 92.205 0 166.952 74.747 166.953 166.952 0 92.205-74.747 166.952-166.953 166.953-92.205 0-166.952-74.747-166.952-166.953zM166.952 321.993c85.627 0 155.041-69.414 155.041-155.041 0-85.627-69.414-155.041-155.041-155.041-85.627 0-155.041 69.414-155.041 155.041 0 85.627 69.414 155.041 155.041 155.041z" data-fill-palette-color="tertiary" fill="url(#c576ccff-e8de-4455-ac1d-0e63b5b4e4e3)" stroke="transparent"></path><ellipse rx="160.27418187383762" ry="160.27418187383762" cx="166.95227278524752" cy="166.95227278524752" fill="url(#c576ccff-e8de-4455-ac1d-0e63b5b4e4e3)" stroke="transparent" stroke-width="0" fill-opacity="1" data-fill-palette-color="tertiary"></ellipse></g><g transform="matrix(1,0,0,1,136.9331354527234,71.17305217166896)"><svg viewBox="0 0 60.03827466504821 191.55844122715712" height="191.55844122715712" width="60.03827466504821"><g><svg viewBox="0 0 60.03827466504821 191.55844122715712" height="191.55844122715712" width="60.03827466504821"><g><svg viewBox="0 0 87.07201873961687 277.8124500964859" height="191.55844122715712" width="60.03827466504821"><g transform="matrix(1,0,0,1,0,86.2540088693288)"><svg viewBox="0 0 87.07201873961687 191.55844122715712" height="191.55844122715712" width="87.07201873961687"><g id="textblocktransform"><svg viewBox="0 0 87.07201873961687 191.55844122715712" height="191.55844122715712" width="87.07201873961687" id="textblock"><g><svg viewBox="0 0 87.07201873961687 191.55844122715712" height="191.55844122715712" width="87.07201873961687"><g transform="matrix(1,0,0,1,0,0)"><svg width="87.07201873961687" viewBox="3 -28.05 17.75 39.05" height="191.55844122715712" data-palette-color="#000000"><path d="M6.75-4.3L6.75-4.3Q7.35-3.7 8.05-3.4 8.75-3.1 9.55-3.1L9.55-3.1Q12.45-3.1 14.6-7.28 16.75-11.45 16.75-17.6L16.75-17.6Q16.75-20.75 15.7-22.55 14.65-24.35 12.85-24.35L12.85-24.35Q10.75-24.35 9.15-22.4 7.55-20.45 6.6-16.65L6.6-16.65Q6.55-16.05 6.55-15.3 6.55-14.55 6.55-13.05L6.55-13.05Q6.55-11.2 6.6-9.2 6.65-7.2 6.75-4.3ZM6.95-0.85L6.95-0.85Q7.15 2.05 7.48 4.8 7.8 7.55 8.3 10.5L8.3 10.5Q7.6 10.75 6.68 10.88 5.75 11 4.95 11L4.95 11Q4.1 4.6 3.55-3.2 3-11 3-17.4L3-17.4Q3-20.35 3.1-22.7 3.2-25.05 3.45-27.35L3.45-27.35Q4.1-27.7 4.88-27.88 5.65-28.05 6.5-28.05L6.5-28.05Q6.75-28.05 7.1-28 7.45-27.95 7.95-27.85L7.95-27.85Q7.6-26.4 7.38-25.05 7.15-23.7 7-22.4L7-22.4Q8.35-25 10.23-26.4 12.1-27.8 14.35-27.8L14.35-27.8Q17.25-27.8 19-25.1 20.75-22.4 20.75-17.9L20.75-17.9Q20.75-10.45 17.5-5.48 14.25-0.5 9.55-0.5L9.55-0.5Q8.9-0.5 8.25-0.58 7.6-0.65 6.95-0.85Z" opacity="1" transform="matrix(1,0,0,1,0,0)" fill="#000000" class="wordmark-text-0" data-fill-palette-color="quaternary" id="text-0"></path></svg></g></svg></g></svg></g></svg></g><g transform="matrix(1,0,0,1,16.630755579266822,0)"><svg viewBox="0 0 53.81050758108322 41.03165829818645" height="41.03165829818645" width="53.81050758108322"><g><svg xmlns="http://www.w3.org/2000/svg" xmlns:xlink="http://www.w3.org/1999/xlink" version="1.1" x="0" y="0" viewBox="9.928915496559402 17.5 85.37466407209159 65.1" enable-background="new 0 0 100 100" xml:space="preserve" height="41.03165829818645" width="53.81050758108322" class="icon-icon-0" data-fill-palette-color="quaternary" id="icon-0"><g fill="#000000" data-fill-palette-color="quaternary"><g fill="#000000" data-fill-palette-color="quaternary"><g fill="#000000" data-fill-palette-color="quaternary"><path d="M52.3 63.8C52.3 53.5 60.8 45 71.2 45 79 45 85.8 49.7 88.7 56.9 90.1 54.7 90.9 52 90.9 49.3 90.9 42.1 85.5 36 78.4 35.3L76.7 35.2 76.3 33.3C75.2 27.4 70 23.2 64 23.2 61.4 23.2 58.8 24 56.9 25.5L55.6 26.4 54.3 25.6C50.7 23.3 46.5 22.1 42.3 22.1 31 22.1 21.7 30.3 21.7 40.3 21.7 40.7 21.7 41.1 21.8 41.4L22 43 20.6 43.7C17.4 45.5 15.2 48.7 14.8 52.4 14.2 58.5 18.7 63.9 24.7 64.6 27 64.9 29.3 64.3 31.4 63.1L32.8 62.3 34 63.3C38.4 66.9 44.6 68.9 51.2 68.9H53C52.5 67.1 52.3 65.5 52.3 63.8M89.9 62.5C90 62.9 90 63.3 90 63.8 90 74.2 81.6 82.6 71.2 82.6 64.5 82.6 58.3 79 54.9 73.3 53.7 73.4 52.4 73.5 51.2 73.5 44.1 73.5 37.5 71.5 32.3 67.7 29.7 68.9 26.9 69.4 24.2 69.1 20 68.7 16.3 66.7 13.6 63.4S9.6 56 10 51.9C10.5 47.1 13 43 16.9 40.4V40.3C16.9 27.7 28.2 17.5 42.1 17.5 46.8 17.5 51.4 18.7 55.4 20.9 58 19.4 60.9 18.6 64 18.6 71.6 18.6 78.3 23.6 80.4 30.9 89.1 32.6 95.3 40.3 95.3 49.3 95.4 54.1 93.4 59 89.9 62.5M71.1 49.3C63.1 49.3 56.6 55.8 56.6 63.8 56.6 65.5 56.9 67.2 57.5 68.7 57.9 69.7 58.3 70.6 58.9 71.7 61.6 75.8 66.1 78.3 71.1 78.3 78.9 78.3 85.2 72.2 85.6 64.4V63.7C85.6 62.7 85.5 61.7 85.3 60.7 84 54.2 78 49.3 71.1 49.3" fill="#000000" data-fill-palette-color="quaternary"></path><path d="M70.7 61.6V58.9C70 59 69.5 59.5 69.5 60.4 69.5 61.1 70.1 61.5 70.7 61.6M72 68.7C72.7 68.7 73.2 68 73.2 67.2 73.2 66.2 72.7 65.8 72 65.6zM65.8 60.9C65.8 58 68 56.1 70.7 55.9V54.9C70.7 54.5 70.9 54.3 71.3 54.3 71.8 54.3 71.9 54.5 71.9 54.9V55.9C73.3 55.9 75.8 56.4 75.8 58.2 75.8 59.1 75.2 59.8 74.3 59.8S72.8 58.9 71.8 58.9V62C74.3 62.7 76.8 63.8 76.8 66.9 76.8 70.3 74 71.9 71.8 72.1V73.1C71.8 73.5 71.6 73.7 71.2 73.7 70.7 73.7 70.6 73.4 70.6 73.1V72.2C69.1 72.1 65.6 71.7 65.6 69.6 65.6 68.6 66.3 67.7 67.2 67.7 67.9 67.7 69.1 68.7 70.6 68.7V65.3C67 64.2 65.8 62.9 65.8 60.9" fill="#000000" data-fill-palette-color="quaternary"></path></g></g></g></svg></g></svg></g><g></g></svg></g></svg></g></svg></g></svg></g><defs></defs><mask id="5491534a-9f10-45f6-b5e0-71dcafb9d285"><g id="SvgjsG2720"><svg viewBox="0 0 333.90454557049503 333.90454557049503" height="333.90454557049503" width="333.90454557049503"><g><svg></svg></g><g><svg viewBox="0 0 333.90454557049503 333.90454557049503" height="333.90454557049503" width="333.90454557049503"><g><path d="M0 166.952c0-92.205 74.747-166.952 166.952-166.952 92.205 0 166.952 74.747 166.953 166.952 0 92.205-74.747 166.952-166.953 166.953-92.205 0-166.952-74.747-166.952-166.953zM166.952 321.993c85.627 0 155.041-69.414 155.041-155.041 0-85.627-69.414-155.041-155.041-155.041-85.627 0-155.041 69.414-155.041 155.041 0 85.627 69.414 155.041 155.041 155.041z" fill="white" stroke="transparent"></path><ellipse rx="160.27418187383762" ry="160.27418187383762" cx="166.95227278524752" cy="166.95227278524752" fill="white" stroke="transparent" stroke-width="0" fill-opacity="1"></ellipse></g><g transform="matrix(1,0,0,1,136.9331354527234,71.17305217166896)"><svg viewBox="0 0 60.03827466504821 191.55844122715712" height="191.55844122715712" width="60.03827466504821"><g><svg viewBox="0 0 60.03827466504821 191.55844122715712" height="191.55844122715712" width="60.03827466504821"><g><svg viewBox="0 0 87.07201873961687 277.8124500964859" height="191.55844122715712" width="60.03827466504821"><g transform="matrix(1,0,0,1,0,86.2540088693288)"><svg viewBox="0 0 87.07201873961687 191.55844122715712" height="191.55844122715712" width="87.07201873961687"><g id="SvgjsG2719"><svg viewBox="0 0 87.07201873961687 191.55844122715712" height="191.55844122715712" width="87.07201873961687" id="SvgjsSvg2718"><g><svg viewBox="0 0 87.07201873961687 191.55844122715712" height="191.55844122715712" width="87.07201873961687"><g transform="matrix(1,0,0,1,0,0)"><svg width="87.07201873961687" viewBox="3 -28.05 17.75 39.05" height="191.55844122715712" data-palette-color="#000000"><path d="M6.75-4.3L6.75-4.3Q7.35-3.7 8.05-3.4 8.75-3.1 9.55-3.1L9.55-3.1Q12.45-3.1 14.6-7.28 16.75-11.45 16.75-17.6L16.75-17.6Q16.75-20.75 15.7-22.55 14.65-24.35 12.85-24.35L12.85-24.35Q10.75-24.35 9.15-22.4 7.55-20.45 6.6-16.65L6.6-16.65Q6.55-16.05 6.55-15.3 6.55-14.55 6.55-13.05L6.55-13.05Q6.55-11.2 6.6-9.2 6.65-7.2 6.75-4.3ZM6.95-0.85L6.95-0.85Q7.15 2.05 7.48 4.8 7.8 7.55 8.3 10.5L8.3 10.5Q7.6 10.75 6.68 10.88 5.75 11 4.95 11L4.95 11Q4.1 4.6 3.55-3.2 3-11 3-17.4L3-17.4Q3-20.35 3.1-22.7 3.2-25.05 3.45-27.35L3.45-27.35Q4.1-27.7 4.88-27.88 5.65-28.05 6.5-28.05L6.5-28.05Q6.75-28.05 7.1-28 7.45-27.95 7.95-27.85L7.95-27.85Q7.6-26.4 7.38-25.05 7.15-23.7 7-22.4L7-22.4Q8.35-25 10.23-26.4 12.1-27.8 14.35-27.8L14.35-27.8Q17.25-27.8 19-25.1 20.75-22.4 20.75-17.9L20.75-17.9Q20.75-10.45 17.5-5.48 14.25-0.5 9.55-0.5L9.55-0.5Q8.9-0.5 8.25-0.58 7.6-0.65 6.95-0.85Z" opacity="1" transform="matrix(1,0,0,1,0,0)" fill="black" class="wordmark-text-0" id="SvgjsPath2717"></path></svg></g></svg></g></svg></g></svg></g><g transform="matrix(1,0,0,1,16.630755579266822,0)"><svg viewBox="0 0 53.81050758108322 41.03165829818645" height="41.03165829818645" width="53.81050758108322"><g><svg xmlns="http://www.w3.org/2000/svg" xmlns:xlink="http://www.w3.org/1999/xlink" version="1.1" x="0" y="0" viewBox="9.928915496559402 17.5 85.37466407209159 65.1" enable-background="new 0 0 100 100" xml:space="preserve" height="41.03165829818645" width="53.81050758108322" class="icon-icon-0" data-fill-palette-color="quaternary" id="SvgjsSvg2716"><g fill="black"><g fill="black"><g fill="black"><path d="M52.3 63.8C52.3 53.5 60.8 45 71.2 45 79 45 85.8 49.7 88.7 56.9 90.1 54.7 90.9 52 90.9 49.3 90.9 42.1 85.5 36 78.4 35.3L76.7 35.2 76.3 33.3C75.2 27.4 70 23.2 64 23.2 61.4 23.2 58.8 24 56.9 25.5L55.6 26.4 54.3 25.6C50.7 23.3 46.5 22.1 42.3 22.1 31 22.1 21.7 30.3 21.7 40.3 21.7 40.7 21.7 41.1 21.8 41.4L22 43 20.6 43.7C17.4 45.5 15.2 48.7 14.8 52.4 14.2 58.5 18.7 63.9 24.7 64.6 27 64.9 29.3 64.3 31.4 63.1L32.8 62.3 34 63.3C38.4 66.9 44.6 68.9 51.2 68.9H53C52.5 67.1 52.3 65.5 52.3 63.8M89.9 62.5C90 62.9 90 63.3 90 63.8 90 74.2 81.6 82.6 71.2 82.6 64.5 82.6 58.3 79 54.9 73.3 53.7 73.4 52.4 73.5 51.2 73.5 44.1 73.5 37.5 71.5 32.3 67.7 29.7 68.9 26.9 69.4 24.2 69.1 20 68.7 16.3 66.7 13.6 63.4S9.6 56 10 51.9C10.5 47.1 13 43 16.9 40.4V40.3C16.9 27.7 28.2 17.5 42.1 17.5 46.8 17.5 51.4 18.7 55.4 20.9 58 19.4 60.9 18.6 64 18.6 71.6 18.6 78.3 23.6 80.4 30.9 89.1 32.6 95.3 40.3 95.3 49.3 95.4 54.1 93.4 59 89.9 62.5M71.1 49.3C63.1 49.3 56.6 55.8 56.6 63.8 56.6 65.5 56.9 67.2 57.5 68.7 57.9 69.7 58.3 70.6 58.9 71.7 61.6 75.8 66.1 78.3 71.1 78.3 78.9 78.3 85.2 72.2 85.6 64.4V63.7C85.6 62.7 85.5 61.7 85.3 60.7 84 54.2 78 49.3 71.1 49.3" fill="black"></path><path d="M70.7 61.6V58.9C70 59 69.5 59.5 69.5 60.4 69.5 61.1 70.1 61.5 70.7 61.6M72 68.7C72.7 68.7 73.2 68 73.2 67.2 73.2 66.2 72.7 65.8 72 65.6zM65.8 60.9C65.8 58 68 56.1 70.7 55.9V54.9C70.7 54.5 70.9 54.3 71.3 54.3 71.8 54.3 71.9 54.5 71.9 54.9V55.9C73.3 55.9 75.8 56.4 75.8 58.2 75.8 59.1 75.2 59.8 74.3 59.8S72.8 58.9 71.8 58.9V62C74.3 62.7 76.8 63.8 76.8 66.9 76.8 70.3 74 71.9 71.8 72.1V73.1C71.8 73.5 71.6 73.7 71.2 73.7 70.7 73.7 70.6 73.4 70.6 73.1V72.2C69.1 72.1 65.6 71.7 65.6 69.6 65.6 68.6 66.3 67.7 67.2 67.7 67.9 67.7 69.1 68.7 70.6 68.7V65.3C67 64.2 65.8 62.9 65.8 60.9" fill="black"></path></g></g></g></svg></g></svg></g><g></g></svg></g></svg></g></svg></g></svg></g><defs><mask></mask></defs></svg><rect width="333.90454557049503" height="333.90454557049503" fill="black" stroke="none" visibility="hidden"></rect></g></mask><linearGradient x1="0" x2="1" y1="0.548" y2="0.55" id="c576ccff-e8de-4455-ac1d-0e63b5b4e4e3"><stop stop-color="#ff6cab" offset="0"></stop><stop stop-color="#7366ff" offset="1"></stop></linearGradient></svg><rect width="333.90454557049503" height="333.90454557049503" fill="none" stroke="none" visibility="hidden"></rect></g></svg></g></svg>